%TF.GenerationSoftware,KiCad,Pcbnew,10.0.0*%
%TF.CreationDate,2026-07-21T17:15:51-05:00*%
%TF.ProjectId,Estacion,45737461-6369-46f6-9e2e-6b696361645f,rev?*%
%TF.SameCoordinates,Original*%
%TF.FileFunction,Soldermask,Top*%
%TF.FilePolarity,Negative*%
%FSLAX46Y46*%
G04 Gerber Fmt 4.6, Leading zero omitted, Abs format (unit mm)*
G04 Created by KiCad (PCBNEW 10.0.0) date 2026-07-21 17:15:51*
%MOMM*%
%LPD*%
G01*
G04 APERTURE LIST*
G04 Aperture macros list*
%AMRoundRect*
0 Rectangle with rounded corners*
0 $1 Rounding radius*
0 $2 $3 $4 $5 $6 $7 $8 $9 X,Y pos of 4 corners*
0 Add a 4 corners polygon primitive as box body*
4,1,4,$2,$3,$4,$5,$6,$7,$8,$9,$2,$3,0*
0 Add four circle primitives for the rounded corners*
1,1,$1+$1,$2,$3*
1,1,$1+$1,$4,$5*
1,1,$1+$1,$6,$7*
1,1,$1+$1,$8,$9*
0 Add four rect primitives between the rounded corners*
20,1,$1+$1,$2,$3,$4,$5,0*
20,1,$1+$1,$4,$5,$6,$7,0*
20,1,$1+$1,$6,$7,$8,$9,0*
20,1,$1+$1,$8,$9,$2,$3,0*%
%AMFreePoly0*
4,1,19,-0.850000,0.510000,-0.510000,0.850000,0.255000,0.850000,0.408997,0.829726,0.552500,0.770285,0.675729,0.675729,0.770285,0.552500,0.829726,0.408997,0.850000,0.255000,0.850000,-0.510000,0.510000,-0.850000,-0.255000,-0.850000,-0.408997,-0.829726,-0.552500,-0.770285,-0.675729,-0.675729,-0.770285,-0.552500,-0.829726,-0.408997,-0.850000,-0.255000,-0.850000,0.510000,-0.850000,0.510000,
$1*%
G04 Aperture macros list end*
%ADD10C,1.700000*%
%ADD11O,1.524800X2.845600*%
%ADD12FreePoly0,0.000000*%
%ADD13C,1.800000*%
%ADD14R,1.800000X1.800000*%
%ADD15C,2.000000*%
%ADD16C,1.494000*%
%ADD17RoundRect,0.102000X0.645000X0.645000X-0.645000X0.645000X-0.645000X-0.645000X0.645000X-0.645000X0*%
%ADD18C,3.000000*%
%ADD19R,2.000000X2.000000*%
%ADD20C,2.600000*%
%ADD21C,1.500000*%
%ADD22RoundRect,0.250000X0.400000X0.625000X-0.400000X0.625000X-0.400000X-0.625000X0.400000X-0.625000X0*%
G04 APERTURE END LIST*
D10*
%TO.C,BMP280*%
X165550000Y-102635000D03*
X168090000Y-102635000D03*
X170630000Y-102635000D03*
X173170000Y-102635000D03*
X175710000Y-102635000D03*
X178250000Y-102635000D03*
%TD*%
D11*
%TO.C,U6*%
X84890000Y-93110000D03*
X82350000Y-93110000D03*
X79810000Y-93110000D03*
X77270000Y-93110000D03*
X74730000Y-93110000D03*
X72190000Y-93110000D03*
X69650000Y-93110000D03*
X67110000Y-93110000D03*
X67110000Y-110890000D03*
X69650000Y-110890000D03*
X72190000Y-110890000D03*
X74730000Y-110890000D03*
X77270000Y-110890000D03*
X79810000Y-110890000D03*
X82350000Y-110890000D03*
X84890000Y-110890000D03*
%TD*%
D12*
%TO.C,U4*%
X94087500Y-86555000D03*
D10*
X94087500Y-89095000D03*
X94087500Y-91635000D03*
X94087500Y-94175000D03*
X94087500Y-96715000D03*
X94087500Y-99255000D03*
X94087500Y-101795000D03*
X94087500Y-104335000D03*
X116947500Y-104335000D03*
X116947500Y-101795000D03*
X116947500Y-99255000D03*
X116947500Y-96715000D03*
X116947500Y-94175000D03*
X116947500Y-91635000D03*
X116947500Y-89095000D03*
X116947500Y-86555000D03*
X96627500Y-86555000D03*
X96627500Y-89095000D03*
X96627500Y-91635000D03*
X96627500Y-94175000D03*
X96627500Y-96715000D03*
X96627500Y-99255000D03*
X96627500Y-101795000D03*
X96627500Y-104335000D03*
X114407500Y-104335000D03*
X114407500Y-101795000D03*
X114407500Y-99255000D03*
X114407500Y-96715000D03*
X114407500Y-94175000D03*
X114407500Y-91635000D03*
X114407500Y-89095000D03*
X114407500Y-86555000D03*
%TD*%
D13*
%TO.C,D5*%
X128484499Y-105350000D03*
X130643500Y-105350000D03*
X132802499Y-105350000D03*
D14*
X134961500Y-105350000D03*
%TD*%
%TO.C,D3*%
X135177000Y-87800000D03*
D13*
X133017999Y-87800000D03*
X130859000Y-87800000D03*
X128699999Y-87800000D03*
%TD*%
D14*
%TO.C,D4*%
X135077000Y-96400000D03*
D13*
X132917999Y-96400000D03*
X130759000Y-96400000D03*
X128599999Y-96400000D03*
%TD*%
D15*
%TO.C,SW1*%
X72750000Y-63250001D03*
X72749999Y-56750000D03*
X77250000Y-63250000D03*
X77250000Y-56750000D03*
%TD*%
D16*
%TO.C,U5*%
X146190000Y-84460000D03*
X148729999Y-84460000D03*
X151270001Y-84460000D03*
D17*
X153810000Y-84460000D03*
D18*
X150000000Y-108999999D03*
%TD*%
D15*
%TO.C,D1*%
X132190000Y-55300000D03*
X134730000Y-55300000D03*
X137270000Y-55300000D03*
D19*
X139810000Y-55300000D03*
D20*
X124586000Y-56443000D03*
X124586000Y-79057000D03*
X147414000Y-56443000D03*
X147414000Y-79057000D03*
%TD*%
D21*
%TO.C,R2*%
X116700000Y-56500000D03*
X113300000Y-56500000D03*
%TD*%
D22*
%TO.C,R3*%
X113749999Y-60750000D03*
X116850001Y-60750000D03*
%TD*%
%TO.C,R1*%
X151059999Y-81410000D03*
X154160001Y-81410000D03*
%TD*%
M02*
