%TF.GenerationSoftware,KiCad,Pcbnew,10.0.0*%
%TF.CreationDate,2026-07-21T17:15:51-05:00*%
%TF.ProjectId,Estacion,45737461-6369-46f6-9e2e-6b696361645f,rev?*%
%TF.SameCoordinates,Original*%
%TF.FileFunction,Legend,Bot*%
%TF.FilePolarity,Positive*%
%FSLAX46Y46*%
G04 Gerber Fmt 4.6, Leading zero omitted, Abs format (unit mm)*
G04 Created by KiCad (PCBNEW 10.0.0) date 2026-07-21 17:15:51*
%MOMM*%
%LPD*%
G01*
G04 APERTURE LIST*
%ADD10C,0.150000*%
%ADD11C,0.101600*%
%ADD12C,0.120000*%
%ADD13C,0.127000*%
G04 APERTURE END LIST*
D10*
X132461094Y-101844819D02*
X132461094Y-100844819D01*
X132461094Y-100844819D02*
X132222999Y-100844819D01*
X132222999Y-100844819D02*
X132080142Y-100892438D01*
X132080142Y-100892438D02*
X131984904Y-100987676D01*
X131984904Y-100987676D02*
X131937285Y-101082914D01*
X131937285Y-101082914D02*
X131889666Y-101273390D01*
X131889666Y-101273390D02*
X131889666Y-101416247D01*
X131889666Y-101416247D02*
X131937285Y-101606723D01*
X131937285Y-101606723D02*
X131984904Y-101701961D01*
X131984904Y-101701961D02*
X132080142Y-101797200D01*
X132080142Y-101797200D02*
X132222999Y-101844819D01*
X132222999Y-101844819D02*
X132461094Y-101844819D01*
X130984904Y-100844819D02*
X131461094Y-100844819D01*
X131461094Y-100844819D02*
X131508713Y-101321009D01*
X131508713Y-101321009D02*
X131461094Y-101273390D01*
X131461094Y-101273390D02*
X131365856Y-101225771D01*
X131365856Y-101225771D02*
X131127761Y-101225771D01*
X131127761Y-101225771D02*
X131032523Y-101273390D01*
X131032523Y-101273390D02*
X130984904Y-101321009D01*
X130984904Y-101321009D02*
X130937285Y-101416247D01*
X130937285Y-101416247D02*
X130937285Y-101654342D01*
X130937285Y-101654342D02*
X130984904Y-101749580D01*
X130984904Y-101749580D02*
X131032523Y-101797200D01*
X131032523Y-101797200D02*
X131127761Y-101844819D01*
X131127761Y-101844819D02*
X131365856Y-101844819D01*
X131365856Y-101844819D02*
X131461094Y-101797200D01*
X131461094Y-101797200D02*
X131508713Y-101749580D01*
X132676594Y-84294819D02*
X132676594Y-83294819D01*
X132676594Y-83294819D02*
X132438499Y-83294819D01*
X132438499Y-83294819D02*
X132295642Y-83342438D01*
X132295642Y-83342438D02*
X132200404Y-83437676D01*
X132200404Y-83437676D02*
X132152785Y-83532914D01*
X132152785Y-83532914D02*
X132105166Y-83723390D01*
X132105166Y-83723390D02*
X132105166Y-83866247D01*
X132105166Y-83866247D02*
X132152785Y-84056723D01*
X132152785Y-84056723D02*
X132200404Y-84151961D01*
X132200404Y-84151961D02*
X132295642Y-84247200D01*
X132295642Y-84247200D02*
X132438499Y-84294819D01*
X132438499Y-84294819D02*
X132676594Y-84294819D01*
X131771832Y-83294819D02*
X131152785Y-83294819D01*
X131152785Y-83294819D02*
X131486118Y-83675771D01*
X131486118Y-83675771D02*
X131343261Y-83675771D01*
X131343261Y-83675771D02*
X131248023Y-83723390D01*
X131248023Y-83723390D02*
X131200404Y-83771009D01*
X131200404Y-83771009D02*
X131152785Y-83866247D01*
X131152785Y-83866247D02*
X131152785Y-84104342D01*
X131152785Y-84104342D02*
X131200404Y-84199580D01*
X131200404Y-84199580D02*
X131248023Y-84247200D01*
X131248023Y-84247200D02*
X131343261Y-84294819D01*
X131343261Y-84294819D02*
X131628975Y-84294819D01*
X131628975Y-84294819D02*
X131724213Y-84247200D01*
X131724213Y-84247200D02*
X131771832Y-84199580D01*
X132576594Y-92894819D02*
X132576594Y-91894819D01*
X132576594Y-91894819D02*
X132338499Y-91894819D01*
X132338499Y-91894819D02*
X132195642Y-91942438D01*
X132195642Y-91942438D02*
X132100404Y-92037676D01*
X132100404Y-92037676D02*
X132052785Y-92132914D01*
X132052785Y-92132914D02*
X132005166Y-92323390D01*
X132005166Y-92323390D02*
X132005166Y-92466247D01*
X132005166Y-92466247D02*
X132052785Y-92656723D01*
X132052785Y-92656723D02*
X132100404Y-92751961D01*
X132100404Y-92751961D02*
X132195642Y-92847200D01*
X132195642Y-92847200D02*
X132338499Y-92894819D01*
X132338499Y-92894819D02*
X132576594Y-92894819D01*
X131148023Y-92228152D02*
X131148023Y-92894819D01*
X131386118Y-91847200D02*
X131624213Y-92561485D01*
X131624213Y-92561485D02*
X131005166Y-92561485D01*
D11*
X146869813Y-53618754D02*
X146869813Y-52450354D01*
X146869813Y-52450354D02*
X146591623Y-52450354D01*
X146591623Y-52450354D02*
X146424708Y-52505992D01*
X146424708Y-52505992D02*
X146313432Y-52617268D01*
X146313432Y-52617268D02*
X146257794Y-52728544D01*
X146257794Y-52728544D02*
X146202156Y-52951096D01*
X146202156Y-52951096D02*
X146202156Y-53118011D01*
X146202156Y-53118011D02*
X146257794Y-53340563D01*
X146257794Y-53340563D02*
X146313432Y-53451839D01*
X146313432Y-53451839D02*
X146424708Y-53563116D01*
X146424708Y-53563116D02*
X146591623Y-53618754D01*
X146591623Y-53618754D02*
X146869813Y-53618754D01*
X145089394Y-53618754D02*
X145757051Y-53618754D01*
X145423223Y-53618754D02*
X145423223Y-52450354D01*
X145423223Y-52450354D02*
X145534499Y-52617268D01*
X145534499Y-52617268D02*
X145645775Y-52728544D01*
X145645775Y-52728544D02*
X145757051Y-52784182D01*
%TO.C,D5*%
D12*
X134283000Y-106894830D02*
G75*
G02*
X128935185Y-106430827I-2560000J1544830D01*
G01*
X133977684Y-106430000D02*
G75*
G02*
X129468521Y-106430429I-2254684J1080000D01*
G01*
X129468521Y-104269571D02*
G75*
G02*
X133977684Y-104270000I2254479J-1080429D01*
G01*
X128935185Y-104269173D02*
G75*
G02*
X134283000Y-103805170I2787815J-1080827D01*
G01*
X134283000Y-106430000D02*
X134283000Y-106895000D01*
X134283000Y-103805000D02*
X134283000Y-104270000D01*
%TO.C,D3*%
X134498500Y-86255000D02*
X134498500Y-86720000D01*
X134498500Y-88880000D02*
X134498500Y-89345000D01*
X129150685Y-86719173D02*
G75*
G02*
X134498500Y-86255170I2787815J-1080827D01*
G01*
X129684021Y-86719571D02*
G75*
G02*
X134193184Y-86720000I2254479J-1080429D01*
G01*
X134193184Y-88880000D02*
G75*
G02*
X129684021Y-88880429I-2254684J1080000D01*
G01*
X134498500Y-89344830D02*
G75*
G02*
X129150685Y-88880827I-2560000J1544830D01*
G01*
%TO.C,D4*%
X134398500Y-94855000D02*
X134398500Y-95320000D01*
X134398500Y-97480000D02*
X134398500Y-97945000D01*
X129050685Y-95319173D02*
G75*
G02*
X134398500Y-94855170I2787815J-1080827D01*
G01*
X129584021Y-95319571D02*
G75*
G02*
X134093184Y-95320000I2254479J-1080429D01*
G01*
X134093184Y-97480000D02*
G75*
G02*
X129584021Y-97480429I-2254684J1080000D01*
G01*
X134398500Y-97944830D02*
G75*
G02*
X129050685Y-97480827I-2560000J1544830D01*
G01*
%TO.C,D1*%
D13*
X149716000Y-80970000D02*
X149716000Y-54030000D01*
X149716000Y-54030000D02*
X122284000Y-54030000D01*
X147430000Y-73588000D02*
X147430000Y-59872000D01*
X147430000Y-59872000D02*
X124570000Y-59872000D01*
X143620000Y-80970000D02*
X149716000Y-80970000D01*
X143620000Y-80970000D02*
X142350000Y-79065000D01*
X142350000Y-79065000D02*
X129650000Y-79065000D01*
X129650000Y-79065000D02*
X128380000Y-80970000D01*
X128380000Y-80970000D02*
X143620000Y-80970000D01*
X124570000Y-73588000D02*
X147430000Y-73588000D01*
X124570000Y-59872000D02*
X124570000Y-73588000D01*
X122284000Y-80970000D02*
X128380000Y-80970000D01*
X122284000Y-54030000D02*
X122284000Y-80970000D01*
%TD*%
M02*
