M48
; DRILL file KiCad 10.0.0 date 2026-07-21T17:15:57
; FORMAT={-:-/ absolute / metric / decimal}
; #@! TF.CreationDate,2026-07-21T17:15:57-05:00
; #@! TF.GenerationSoftware,Kicad,Pcbnew,10.0.0
; #@! TF.FileFunction,Plated,1,2,PTH
FMAT,2
METRIC
; #@! TA.AperFunction,Plated,PTH,ViaDrill
T1C0.650
; #@! TA.AperFunction,Plated,PTH,ComponentDrill
T2C0.800
; #@! TA.AperFunction,Plated,PTH,ComponentDrill
T3C0.813
; #@! TA.AperFunction,Plated,PTH,ComponentDrill
T4C0.860
; #@! TA.AperFunction,Plated,PTH,ComponentDrill
T5C0.900
; #@! TA.AperFunction,Plated,PTH,ComponentDrill
T6C1.000
; #@! TA.AperFunction,Plated,PTH,ComponentDrill
T7C1.100
%
G90
G05
T1
X86.774Y-96.855
X103.768Y-107.547
X104.621Y-109.564
X108.481Y-95.503
X123.846Y-95.55
X124.134Y-101.264
X127.019Y-103.492
X129.349Y-85.497
T2
X113.3Y-56.5
X116.7Y-56.5
T3
X67.11Y-93.11
X67.11Y-110.89
X69.65Y-93.11
X69.65Y-110.89
X72.19Y-93.11
X72.19Y-110.89
X74.73Y-93.11
X74.73Y-110.89
X77.27Y-93.11
X77.27Y-110.89
X79.81Y-93.11
X79.81Y-110.89
X82.35Y-93.11
X82.35Y-110.89
X84.89Y-93.11
X84.89Y-110.89
T4
X146.19Y-84.46
X148.73Y-84.46
X151.27Y-84.46
X153.81Y-84.46
T5
X128.484Y-105.35
X128.6Y-96.4
X128.7Y-87.8
X130.643Y-105.35
X130.759Y-96.4
X130.859Y-87.8
X132.802Y-105.35
X132.918Y-96.4
X133.018Y-87.8
X134.962Y-105.35
X135.077Y-96.4
X135.177Y-87.8
T6
X94.087Y-86.555
X94.087Y-89.095
X94.087Y-91.635
X94.087Y-94.175
X94.087Y-96.715
X94.087Y-99.255
X94.087Y-101.795
X94.087Y-104.335
X96.627Y-86.555
X96.627Y-89.095
X96.627Y-91.635
X96.627Y-94.175
X96.627Y-96.715
X96.627Y-99.255
X96.627Y-101.795
X96.627Y-104.335
X114.407Y-86.555
X114.407Y-89.095
X114.407Y-91.635
X114.407Y-94.175
X114.407Y-96.715
X114.407Y-99.255
X114.407Y-101.795
X114.407Y-104.335
X116.947Y-86.555
X116.947Y-89.095
X116.947Y-91.635
X116.947Y-94.175
X116.947Y-96.715
X116.947Y-99.255
X116.947Y-101.795
X116.947Y-104.335
X132.19Y-55.3
X134.73Y-55.3
X137.27Y-55.3
X139.81Y-55.3
X165.55Y-102.635
X168.09Y-102.635
X170.63Y-102.635
X173.17Y-102.635
X175.71Y-102.635
X178.25Y-102.635
T7
X72.75Y-56.75
X72.75Y-63.25
X77.25Y-56.75
X77.25Y-63.25
M30
