%TF.GenerationSoftware,KiCad,Pcbnew,10.0.0*%
%TF.CreationDate,2026-07-21T17:15:51-05:00*%
%TF.ProjectId,Estacion,45737461-6369-46f6-9e2e-6b696361645f,rev?*%
%TF.SameCoordinates,Original*%
%TF.FileFunction,Copper,L2,Bot*%
%TF.FilePolarity,Positive*%
%FSLAX46Y46*%
G04 Gerber Fmt 4.6, Leading zero omitted, Abs format (unit mm)*
G04 Created by KiCad (PCBNEW 10.0.0) date 2026-07-21 17:15:51*
%MOMM*%
%LPD*%
G01*
G04 APERTURE LIST*
G04 Aperture macros list*
%AMFreePoly0*
4,1,19,-0.850000,0.510000,-0.510000,0.850000,0.255000,0.850000,0.408997,0.829726,0.552500,0.770285,0.675729,0.675729,0.770285,0.552500,0.829726,0.408997,0.850000,0.255000,0.850000,-0.510000,0.510000,-0.850000,-0.255000,-0.850000,-0.408997,-0.829726,-0.552500,-0.770285,-0.675729,-0.675729,-0.770285,-0.552500,-0.829726,-0.408997,-0.850000,-0.255000,-0.850000,0.510000,-0.850000,0.510000,
$1*%
G04 Aperture macros list end*
%TA.AperFunction,ComponentPad*%
%ADD10C,1.700000*%
%TD*%
%TA.AperFunction,ComponentPad*%
%ADD11O,1.320800X2.641600*%
%TD*%
%TA.AperFunction,ComponentPad*%
%ADD12FreePoly0,0.000000*%
%TD*%
%TA.AperFunction,ComponentPad*%
%ADD13C,1.800000*%
%TD*%
%TA.AperFunction,ComponentPad*%
%ADD14R,1.800000X1.800000*%
%TD*%
%TA.AperFunction,ComponentPad*%
%ADD15C,2.000000*%
%TD*%
%TA.AperFunction,ComponentPad*%
%ADD16C,1.290000*%
%TD*%
%TA.AperFunction,ComponentPad*%
%ADD17R,1.290000X1.290000*%
%TD*%
%TA.AperFunction,ComponentPad*%
%ADD18R,2.000000X2.000000*%
%TD*%
%TA.AperFunction,ComponentPad*%
%ADD19C,1.500000*%
%TD*%
%TA.AperFunction,ViaPad*%
%ADD20C,1.100000*%
%TD*%
%TA.AperFunction,Conductor*%
%ADD21C,0.600000*%
%TD*%
G04 APERTURE END LIST*
D10*
%TO.P,BMP280,6,SDO_6*%
%TO.N,+3V3*%
X165550000Y-102635000D03*
%TO.P,BMP280,5,CSB_5*%
X168090000Y-102635000D03*
%TO.P,BMP280,4,SDA_4*%
%TO.N,/SDA*%
X170630000Y-102635000D03*
%TO.P,BMP280,3,SCL_3*%
%TO.N,/SCL*%
X173170000Y-102635000D03*
%TO.P,BMP280,2,GND_2*%
%TO.N,GND*%
X175710000Y-102635000D03*
%TO.P,BMP280,1,VCC_1*%
%TO.N,+3V3*%
X178250000Y-102635000D03*
%TD*%
D11*
%TO.P,U6,1,VCC_1*%
%TO.N,+5V*%
X84890000Y-93110000D03*
%TO.P,U6,2,RX_2*%
%TO.N,Net-(U4-GPIO11)*%
X82350000Y-93110000D03*
%TO.P,U6,3,TX_3*%
%TO.N,Net-(U4-GPIO12)*%
X79810000Y-93110000D03*
%TO.P,U6,4,DAC_R_4*%
%TO.N,unconnected-(U6-DAC_R-Pad4)*%
X77270000Y-93110000D03*
%TO.P,U6,5,DAC_L_5*%
%TO.N,unconnected-(U6-DAC_L-Pad5)*%
X74730000Y-93110000D03*
%TO.P,U6,6,SPK+_6*%
%TO.N,Net-(U6-SPK+)*%
X72190000Y-93110000D03*
%TO.P,U6,7,GND@_7*%
%TO.N,GND*%
X69650000Y-93110000D03*
%TO.P,U6,8,SPK-_8*%
%TO.N,Net-(U6-SPK-)*%
X67110000Y-93110000D03*
%TO.P,U6,9,IO1_9*%
%TO.N,unconnected-(U6-IO1-Pad9)*%
X67110000Y-110890000D03*
%TO.P,U6,10,GND_10*%
%TO.N,GND*%
X69650000Y-110890000D03*
%TO.P,U6,11,IO2_11*%
%TO.N,unconnected-(U6-IO2-Pad11)*%
X72190000Y-110890000D03*
%TO.P,U6,12,ADKEY1_12*%
%TO.N,unconnected-(U6-ADKEY1-Pad12)*%
X74730000Y-110890000D03*
%TO.P,U6,13,ADKEY2_13*%
%TO.N,unconnected-(U6-ADKEY2-Pad13)*%
X77270000Y-110890000D03*
%TO.P,U6,14,USB+_14*%
%TO.N,unconnected-(U6-USB+-Pad14)*%
X79810000Y-110890000D03*
%TO.P,U6,15,USB-_15*%
%TO.N,unconnected-(U6-USB--Pad15)*%
X82350000Y-110890000D03*
%TO.P,U6,16,BUSY_16*%
%TO.N,unconnected-(U6-BUSY-Pad16)*%
X84890000Y-110890000D03*
%TD*%
D12*
%TO.P,U4,1,EN_1*%
%TO.N,unconnected-(U4-EN-Pad1)*%
X94087500Y-86555000D03*
D10*
%TO.P,U4,2,GPIO3_2*%
%TO.N,Net-(U4-GPIO3)*%
X94087500Y-89095000D03*
%TO.P,U4,3,GPIO5_3*%
%TO.N,Net-(U4-GPIO5)*%
X94087500Y-91635000D03*
%TO.P,U4,4,GPIO7_4*%
%TO.N,unconnected-(U4-GPIO7-Pad4)*%
X94087500Y-94175000D03*
%TO.P,U4,5,GPIO9_5*%
%TO.N,/SCL*%
X94087500Y-96715000D03*
%TO.P,U4,6,GPIO11_6*%
%TO.N,Net-(U4-GPIO11)*%
X94087500Y-99255000D03*
%TO.P,U4,7,GPIO12_7*%
%TO.N,Net-(U4-GPIO12)*%
X94087500Y-101795000D03*
%TO.P,U4,8,3V3_8*%
%TO.N,+3V3*%
X94087500Y-104335000D03*
%TO.P,U4,9,VBUS_9*%
%TO.N,+5V*%
X116947500Y-104335000D03*
%TO.P,U4,10,GND_10*%
%TO.N,GND*%
X116947500Y-101795000D03*
%TO.P,U4,11,XTAL_32K_N_11*%
%TO.N,unconnected-(U4-XTAL_32K_N-Pad11)*%
X116947500Y-99255000D03*
%TO.P,U4,12,DAC_2_12*%
%TO.N,unconnected-(U4-DAC_2-Pad12)*%
X116947500Y-96715000D03*
%TO.P,U4,13,GPIO33_13*%
%TO.N,Net-(D3-GK)*%
X116947500Y-94175000D03*
%TO.P,U4,14,GPIO35_14*%
%TO.N,Net-(D4-RK)*%
X116947500Y-91635000D03*
%TO.P,U4,15,GPIO37_15*%
%TO.N,Net-(D4-BK)*%
X116947500Y-89095000D03*
%TO.P,U4,16,GPIO39_16*%
%TO.N,Net-(D5-GK)*%
X116947500Y-86555000D03*
%TO.P,U4,17,GPIO1_17*%
%TO.N,unconnected-(U4-GPIO1-Pad17)*%
X96627500Y-86555000D03*
%TO.P,U4,18,GPIO2_18*%
%TO.N,unconnected-(U4-GPIO2-Pad18)*%
X96627500Y-89095000D03*
%TO.P,U4,19,GPIO4_19*%
%TO.N,unconnected-(U4-GPIO4-Pad19)*%
X96627500Y-91635000D03*
%TO.P,U4,20,GPIO6_20*%
%TO.N,unconnected-(U4-GPIO6-Pad20)*%
X96627500Y-94175000D03*
%TO.P,U4,21,GPIO8_21*%
%TO.N,/SDA*%
X96627500Y-96715000D03*
%TO.P,U4,22,GPIO10_22*%
%TO.N,unconnected-(U4-GPIO10-Pad22)*%
X96627500Y-99255000D03*
%TO.P,U4,23,GPIO13_23*%
%TO.N,unconnected-(U4-GPIO13-Pad23)*%
X96627500Y-101795000D03*
%TO.P,U4,24,GPIO14_24*%
%TO.N,Net-(U4-GPIO14)*%
X96627500Y-104335000D03*
%TO.P,U4,25,XTAL_32K_P_25*%
%TO.N,unconnected-(U4-XTAL_32K_P-Pad25)*%
X114407500Y-104335000D03*
%TO.P,U4,26,GND_26*%
%TO.N,GND*%
X114407500Y-101795000D03*
%TO.P,U4,27,DAC_1_27*%
%TO.N,unconnected-(U4-DAC_1-Pad27)*%
X114407500Y-99255000D03*
%TO.P,U4,28,GPIO21_28*%
%TO.N,Net-(D3-RK)*%
X114407500Y-96715000D03*
%TO.P,U4,29,GPIO34_29*%
%TO.N,Net-(D3-BK)*%
X114407500Y-94175000D03*
%TO.P,U4,30,GPIO36_30*%
%TO.N,Net-(D4-GK)*%
X114407500Y-91635000D03*
%TO.P,U4,31,GPIO38_31*%
%TO.N,Net-(D5-RK)*%
X114407500Y-89095000D03*
%TO.P,U4,32,GPIO40_32*%
%TO.N,Net-(D5-BK)*%
X114407500Y-86555000D03*
%TD*%
D13*
%TO.P,D5,4,GK_4*%
%TO.N,Net-(D5-GK)*%
X128484499Y-105350000D03*
%TO.P,D5,3,BK_3*%
%TO.N,Net-(D5-BK)*%
X130643500Y-105350000D03*
%TO.P,D5,2,A_2*%
%TO.N,+3V3*%
X132802499Y-105350000D03*
D14*
%TO.P,D5,1,RK_1*%
%TO.N,Net-(D5-RK)*%
X134961500Y-105350000D03*
%TD*%
%TO.P,D3,1,RK_1*%
%TO.N,Net-(D3-RK)*%
X135177000Y-87800000D03*
D13*
%TO.P,D3,2,A_2*%
%TO.N,+3V3*%
X133017999Y-87800000D03*
%TO.P,D3,3,BK_3*%
%TO.N,Net-(D3-BK)*%
X130859000Y-87800000D03*
%TO.P,D3,4,GK_4*%
%TO.N,Net-(D3-GK)*%
X128699999Y-87800000D03*
%TD*%
D14*
%TO.P,D4,1,RK_1*%
%TO.N,Net-(D4-RK)*%
X135077000Y-96400000D03*
D13*
%TO.P,D4,2,A_2*%
%TO.N,+3V3*%
X132917999Y-96400000D03*
%TO.P,D4,3,BK_3*%
%TO.N,Net-(D4-BK)*%
X130759000Y-96400000D03*
%TO.P,D4,4,GK_4*%
%TO.N,Net-(D4-GK)*%
X128599999Y-96400000D03*
%TD*%
D15*
%TO.P,SW1,2,2_2*%
%TO.N,Net-(U4-GPIO14)*%
X72750000Y-63250001D03*
X72749999Y-56750000D03*
%TO.P,SW1,1,1_1*%
%TO.N,GND*%
X77250000Y-63250000D03*
X77250000Y-56750000D03*
%TD*%
D16*
%TO.P,U5,4,GND_4*%
%TO.N,GND*%
X146190000Y-84460000D03*
%TO.P,U5,3,NC_3*%
%TO.N,unconnected-(U5-NC-Pad3)*%
X148729999Y-84460000D03*
%TO.P,U5,2,DATA_2*%
%TO.N,Net-(U4-GPIO5)*%
X151270001Y-84460000D03*
D17*
%TO.P,U5,1,VDD_1*%
%TO.N,+3V3*%
X153810000Y-84460000D03*
%TD*%
D15*
%TO.P,D1,4,SDA_4*%
%TO.N,/SDA*%
X132190000Y-55300000D03*
%TO.P,D1,3,SCL_3*%
%TO.N,/SCL*%
X134730000Y-55300000D03*
%TO.P,D1,2,VCC_2*%
%TO.N,+3V3*%
X137270000Y-55300000D03*
D18*
%TO.P,D1,1,GND_1*%
%TO.N,GND*%
X139810000Y-55300000D03*
%TD*%
D19*
%TO.P,R2,2*%
%TO.N,Net-(U4-GPIO3)*%
X116700000Y-56500000D03*
%TO.P,R2,1*%
%TO.N,+3V3*%
X113300000Y-56500000D03*
%TD*%
D20*
%TO.N,Net-(D5-BK)*%
X108481400Y-95502700D03*
%TO.N,Net-(D4-GK)*%
X127018700Y-103492000D03*
%TO.N,Net-(D3-BK)*%
X124134100Y-101264200D03*
%TO.N,Net-(U4-GPIO14)*%
X86774200Y-96855200D03*
%TO.N,Net-(D3-GK)*%
X123846200Y-95549700D03*
%TO.N,/SCL*%
X129348600Y-85497400D03*
%TO.N,+5V*%
X103768300Y-107546700D03*
%TO.N,GND*%
X104620800Y-109563600D03*
%TD*%
%TO.N,Net-(D5-BK)*%
D21*
X108481400Y-92233500D02*
X108481400Y-95502700D01*
X114159900Y-86555000D02*
X108481400Y-92233500D01*
X114407500Y-86555000D02*
X114159900Y-86555000D01*
%TO.N,Net-(D4-GK)*%
X128600000Y-101910700D02*
X128600000Y-96400000D01*
X127018700Y-103492000D02*
X128600000Y-101910700D01*
%TO.N,Net-(D3-BK)*%
X130859000Y-91279400D02*
X130859000Y-87800000D01*
X124134100Y-98004300D02*
X130859000Y-91279400D01*
X124134100Y-101264200D02*
X124134100Y-98004300D01*
%TO.N,Net-(U4-GPIO14)*%
X72750000Y-58999800D02*
X74875100Y-61124900D01*
X72750000Y-56750000D02*
X72750000Y-58999800D01*
X78129800Y-61124900D02*
X74875100Y-61124900D01*
X86774200Y-69769300D02*
X78129800Y-61124900D01*
X86774200Y-96855200D02*
X86774200Y-69769300D01*
X74875100Y-61124900D02*
X72750000Y-63250000D01*
%TO.N,/SDA*%
X132190000Y-54778100D02*
X132190000Y-55300000D01*
X133778100Y-53190000D02*
X132190000Y-54778100D01*
X141313300Y-53190000D02*
X133778100Y-53190000D01*
X142636900Y-54513600D02*
X141313300Y-53190000D01*
X142636900Y-55503600D02*
X142636900Y-54513600D01*
X170630000Y-83496700D02*
X142636900Y-55503600D01*
X170630000Y-102635000D02*
X170630000Y-83496700D01*
%TO.N,Net-(D5-GK)*%
X125884000Y-105350000D02*
X128484500Y-105350000D01*
X122194400Y-101660400D02*
X125884000Y-105350000D01*
X122194400Y-91567300D02*
X122194400Y-101660400D01*
X117182100Y-86555000D02*
X122194400Y-91567300D01*
X116947500Y-86555000D02*
X117182100Y-86555000D01*
%TO.N,Net-(D3-GK)*%
X128700000Y-90695900D02*
X123846200Y-95549700D01*
X128700000Y-87800000D02*
X128700000Y-90695900D01*
%TO.N,/SCL*%
X129348600Y-85497400D02*
X129348600Y-59138400D01*
X122786200Y-59138400D02*
X129348600Y-59138400D01*
X118291900Y-54644100D02*
X122786200Y-59138400D01*
X112159700Y-54644100D02*
X118291900Y-54644100D01*
X89867300Y-76936500D02*
X112159700Y-54644100D01*
X89867300Y-92738600D02*
X89867300Y-76936500D01*
X93843700Y-96715000D02*
X89867300Y-92738600D01*
X94087500Y-96715000D02*
X93843700Y-96715000D01*
X134730000Y-55793400D02*
X134730000Y-55300000D01*
X131385000Y-59138400D02*
X134730000Y-55793400D01*
X129348600Y-59138400D02*
X131385000Y-59138400D01*
%TO.N,Net-(U4-GPIO12)*%
X79810000Y-93110000D02*
X79810000Y-95532500D01*
X81725500Y-97448000D02*
X79810000Y-95532500D01*
X82932200Y-97448000D02*
X81725500Y-97448000D01*
X87279200Y-101795000D02*
X82932200Y-97448000D01*
X94087500Y-101795000D02*
X87279200Y-101795000D01*
%TO.N,Net-(U4-GPIO11)*%
X82350000Y-93110000D02*
X82350000Y-95532500D01*
X82999100Y-95532500D02*
X82350000Y-95532500D01*
X86721600Y-99255000D02*
X82999100Y-95532500D01*
X94087500Y-99255000D02*
X86721600Y-99255000D01*
%TO.N,+5V*%
X113997000Y-107546700D02*
X103768300Y-107546700D01*
X116947500Y-104596200D02*
X113997000Y-107546700D01*
X116947500Y-104335000D02*
X116947500Y-104596200D01*
%TO.N,GND*%
X139810000Y-78080000D02*
X146190000Y-84460000D01*
X139810000Y-55300000D02*
X139810000Y-78080000D01*
X69650000Y-93110000D02*
X69650000Y-110890000D01*
X69650000Y-70850000D02*
X77250000Y-63250000D01*
X69650000Y-93110000D02*
X69650000Y-70850000D01*
X104354200Y-109297000D02*
X104620800Y-109563600D01*
X104354200Y-109296900D02*
X104354200Y-109297000D01*
X103182600Y-109296900D02*
X104354200Y-109296900D01*
X102116600Y-108230900D02*
X103182600Y-109296900D01*
X102116600Y-106862500D02*
X102116600Y-108230900D01*
X107184100Y-101795000D02*
X102116600Y-106862500D01*
X114407500Y-101795000D02*
X107184100Y-101795000D01*
%TO.N,Net-(U4-GPIO3)*%
X104390100Y-68809900D02*
X116700000Y-56500000D01*
X99997800Y-68809900D02*
X104390100Y-68809900D01*
X91301400Y-77506300D02*
X99997800Y-68809900D01*
X91301400Y-86749300D02*
X91301400Y-77506300D01*
X93647100Y-89095000D02*
X91301400Y-86749300D01*
X94087500Y-89095000D02*
X93647100Y-89095000D01*
%TO.N,+3V3*%
X133018100Y-87800000D02*
X133018000Y-87800000D01*
X133018100Y-71620300D02*
X133018100Y-87800000D01*
X137270000Y-67368400D02*
X133018100Y-71620300D01*
X137270000Y-55300000D02*
X137270000Y-67368400D01*
X165550000Y-102925400D02*
X165550000Y-102635000D01*
X167264200Y-104639600D02*
X165550000Y-102925400D01*
X176494000Y-104639600D02*
X167264200Y-104639600D01*
X178250000Y-102883600D02*
X176494000Y-104639600D01*
X178250000Y-102635000D02*
X178250000Y-102883600D01*
X165550000Y-97946700D02*
X165550000Y-102635000D01*
X153810000Y-86206700D02*
X165550000Y-97946700D01*
X153810000Y-84460000D02*
X153810000Y-85855800D01*
X153810000Y-85855800D02*
X153810000Y-86205200D01*
X153810000Y-86205200D02*
X153810000Y-86206700D01*
X132918000Y-90637400D02*
X133753700Y-89801700D01*
X132918000Y-96400000D02*
X132918000Y-90637400D01*
X150213500Y-89801700D02*
X133753700Y-89801700D01*
X153810000Y-86205200D02*
X150213500Y-89801700D01*
X133018000Y-89066000D02*
X133018000Y-87800000D01*
X133753700Y-89801700D02*
X133018000Y-89066000D01*
X132918000Y-105234500D02*
X132802500Y-105350000D01*
X132918000Y-96400000D02*
X132918000Y-105234500D01*
X132802500Y-106057300D02*
X132802500Y-105350000D01*
X127644500Y-111215300D02*
X132802500Y-106057300D01*
X100747700Y-111215300D02*
X127644500Y-111215300D01*
X94087500Y-104555100D02*
X100747700Y-111215300D01*
X94087500Y-104335000D02*
X94087500Y-104555100D01*
%TD*%
M02*
